<?xml version="1.0" encoding="utf-8"?>
<!-- Generator: Adobe Illustrator 16.0.0, SVG Export Plug-In . SVG Version: 6.00 Build 0)  -->
<!DOCTYPE svg PUBLIC "-//W3C//DTD SVG 1.1//EN" "http://www.w3.org/Graphics/SVG/1.1/DTD/svg11.dtd">
<svg version="1.1" id="Layer_1" xmlns="http://www.w3.org/2000/svg" xmlns:xlink="http://www.w3.org/1999/xlink" x="0px" y="0px"
	 width="100px" height="34.25px" viewBox="0 0 100 34.25" enable-background="new 0 0 100 34.25" xml:space="preserve">
<g>
	<path fill="#F15A24" d="M2.459,18.318l3.865-13.13c0.154-0.476,0.477-0.714,0.97-0.714c0.477,0,0.778,0.202,0.901,0.605
		l3.826,13.331c0.031,0.099,0.045,0.193,0.045,0.285c0,0.268-0.091,0.494-0.274,0.681s-0.392,0.28-0.628,0.28
		c-0.502,0-0.822-0.232-0.958-0.698l-0.759-2.604H5.053l-0.836,2.791c-0.023,0.121-0.119,0.235-0.287,0.347
		c-0.168,0.11-0.352,0.165-0.551,0.165c-0.283,0-0.516-0.096-0.7-0.286c-0.183-0.19-0.275-0.422-0.275-0.697
		C2.403,18.559,2.421,18.441,2.459,18.318z M7.281,8.918l-1.646,5.494h3.247L7.281,8.918z"/>
	<path fill="#FFFFFF" d="M16.534,18.695V9.592c0-0.267,0.093-0.497,0.279-0.691c0.186-0.194,0.414-0.292,0.68-0.292
		c0.266,0,0.493,0.096,0.68,0.286s0.28,0.423,0.28,0.697v1.199l1.564-1.336c0.648-0.549,1.28-0.823,1.896-0.823h1.405
		c0.792,0,1.47,0.282,2.034,0.845c0.563,0.563,0.845,1.242,0.845,2.033v0.514c0,0.274-0.093,0.506-0.279,0.697
		c-0.187,0.19-0.414,0.285-0.68,0.285c-0.266,0-0.493-0.093-0.679-0.28c-0.187-0.187-0.28-0.413-0.28-0.68v-0.537
		c0-0.267-0.093-0.493-0.279-0.679c-0.187-0.187-0.414-0.28-0.68-0.28h-1.245c-0.267,0-0.563,0.141-0.891,0.422l-2.73,2.365v5.356
		c0,0.268-0.095,0.494-0.286,0.681c-0.19,0.187-0.415,0.28-0.673,0.28c-0.267,0-0.494-0.094-0.68-0.28
		C16.626,19.189,16.534,18.963,16.534,18.695z"/>
	<path fill="#FFFFFF" d="M35.204,10.86l-2.621,1.702v6.133c0,0.26-0.095,0.484-0.286,0.675c-0.19,0.19-0.415,0.286-0.673,0.286
		c-0.259,0-0.484-0.096-0.674-0.286c-0.19-0.19-0.285-0.415-0.285-0.675V9.592c0-0.267,0.093-0.497,0.279-0.691
		c0.186-0.194,0.414-0.292,0.68-0.292c0.258,0,0.483,0.097,0.673,0.292c0.191,0.194,0.286,0.424,0.286,0.691v0.64l1.751-1.063
		c0.587-0.373,1.25-0.56,1.991-0.56h0.892c0.763,0,1.422,0.271,1.979,0.811c0.556,0.541,0.85,1.207,0.88,1.999l0.263,7.276
		c0.007,0.259-0.084,0.484-0.274,0.674s-0.418,0.285-0.685,0.285c-0.252,0-0.473-0.086-0.663-0.258
		c-0.191-0.17-0.29-0.404-0.297-0.701l-0.286-7.162c-0.023-0.67-0.374-1.005-1.053-1.005h-0.939
		C35.853,10.529,35.539,10.639,35.204,10.86z"/>
	<path fill="#FFFFFF" d="M54.457,12.094v4.055c0,0.861-0.405,1.656-1.217,2.388c-0.813,0.73-1.646,1.096-2.508,1.096h-2.25
		c-0.876,0-1.713-0.371-2.513-1.113c-0.8-0.742-1.2-1.533-1.2-2.371v-4.055c0-0.838,0.391-1.628,1.171-2.37
		c0.781-0.743,1.628-1.114,2.542-1.114h2.25c0.861-0.015,1.697,0.343,2.508,1.074C54.052,10.415,54.457,11.219,54.457,12.094z
		 M46.712,12.174v3.884c0,0.351,0.125,0.628,0.377,0.834l0.72,0.617c0.16,0.138,0.384,0.206,0.674,0.206h2.227
		c0.327,0,0.625-0.118,0.892-0.354l0.584-0.514c0.233-0.183,0.354-0.438,0.354-0.765v-3.884c0-0.381-0.119-0.663-0.354-0.845
		l-0.677-0.537c-0.229-0.19-0.493-0.286-0.799-0.286h-1.987c-0.434,0-0.77,0.103-1.005,0.309l-0.651,0.56
		C46.831,11.595,46.712,11.854,46.712,12.174z"/>
	<path fill="#F15A24" d="M59.838,4.475h8.75v1.234l-7.052,12.027h6.091c0.268,0,0.493,0.094,0.68,0.281
		c0.188,0.187,0.281,0.412,0.281,0.68c0,0.259-0.096,0.484-0.286,0.674c-0.188,0.189-0.415,0.286-0.674,0.286H58.9v-1.269
		l7.031-11.972h-6.096c-0.259,0-0.48-0.097-0.663-0.291C58.991,5.931,58.9,5.701,58.9,5.434c0-0.258,0.091-0.483,0.274-0.674
		C59.357,4.57,59.578,4.475,59.838,4.475z"/>
	<path fill="#FFFFFF" d="M82.719,12.094v4.055c0,0.861-0.406,1.656-1.217,2.388c-0.813,0.73-1.646,1.096-2.507,1.096h-2.251
		c-0.877,0-1.715-0.371-2.514-1.113s-1.199-1.533-1.199-2.371v-4.055c0-0.838,0.391-1.628,1.171-2.37
		c0.78-0.743,1.628-1.114,2.542-1.114h2.251c0.858-0.015,1.694,0.343,2.507,1.074C82.313,10.415,82.719,11.219,82.719,12.094z
		 M74.973,12.174v3.884c0,0.351,0.127,0.628,0.379,0.834l0.719,0.617c0.16,0.138,0.385,0.206,0.675,0.206h2.228
		c0.327,0,0.623-0.118,0.892-0.354l0.583-0.514c0.236-0.183,0.354-0.438,0.354-0.765v-3.884c0-0.381-0.117-0.663-0.354-0.845
		l-0.674-0.537c-0.229-0.19-0.496-0.286-0.801-0.286h-1.988c-0.434,0-0.77,0.103-1.004,0.309l-0.651,0.56
		C75.091,11.595,74.973,11.854,74.973,12.174z"/>
	<path fill="#FFFFFF" d="M91.725,10.86l-2.623,1.702v6.133c0,0.26-0.094,0.484-0.283,0.675c-0.191,0.19-0.416,0.286-0.676,0.286
		c-0.259,0-0.482-0.096-0.674-0.286c-0.189-0.19-0.285-0.415-0.285-0.675V9.592c0-0.267,0.094-0.497,0.28-0.691
		c0.187-0.194,0.412-0.292,0.679-0.292c0.26,0,0.483,0.097,0.676,0.292c0.189,0.194,0.283,0.424,0.283,0.691v0.64l1.752-1.063
		c0.588-0.373,1.252-0.56,1.992-0.56h0.891c0.764,0,1.423,0.271,1.979,0.811c0.558,0.541,0.851,1.207,0.88,1.999l0.264,7.276
		c0.008,0.259-0.084,0.484-0.274,0.674s-0.419,0.285-0.685,0.285c-0.252,0-0.474-0.086-0.662-0.258
		c-0.19-0.17-0.291-0.404-0.299-0.701l-0.285-7.162c-0.021-0.67-0.373-1.005-1.053-1.005h-0.938
		C92.372,10.529,92.061,10.639,91.725,10.86z"/>
</g>
</svg>
